<svg width="111" height="29" viewBox="0 0 111 29" fill="none" xmlns="http://www.w3.org/2000/svg">
<g clip-path="url(#clip0_467_1090)">
<path d="M8.70941 21.5802C7.50222 21.5924 6.30499 21.3542 5.18895 20.8799C4.14915 20.4424 3.20851 19.7879 2.42626 18.9575C1.64048 18.1162 1.03092 17.1174 0.635441 16.0232C0.20338 14.8393 -0.0120719 13.5832 -8.33851e-06 12.3185C-0.0077333 10.9968 0.194292 9.68277 0.598066 8.42827C0.966395 7.25821 1.55278 6.17347 2.32432 5.23484C3.08982 4.32443 4.03674 3.59471 5.10059 3.09539C6.26615 2.55904 7.53165 2.29249 8.80797 2.31453C9.332 2.30582 9.85496 2.36583 10.3643 2.49311C10.7607 2.59866 11.151 2.72727 11.5333 2.8783C11.8731 3.01486 12.1687 3.14441 12.4168 3.26346C12.6279 3.37349 12.8599 3.43445 13.0964 3.44204C13.2595 3.43702 13.4168 3.3781 13.545 3.27397C13.6314 3.1868 13.6968 3.07988 13.7357 2.96188C13.7747 2.84388 13.7862 2.71809 13.7692 2.59467H14.0921V9.03053H13.793C13.793 6.8759 13.3705 5.32122 12.5255 4.36646C11.6805 3.4117 10.5195 2.93197 9.04244 2.9273C8.23054 2.92449 7.42788 3.10497 6.69092 3.45604C5.94148 3.81521 5.28137 4.34572 4.76078 5.00723C4.17357 5.76755 3.73505 6.63801 3.46949 7.57039C3.13718 8.71736 2.97787 9.91015 2.99715 11.107C2.98486 12.3505 3.14389 13.5896 3.46949 14.7871C3.74553 15.8272 4.20641 16.8055 4.82875 17.6724C5.39983 18.4602 6.14089 19.1003 6.99335 19.5423C7.89437 19.999 8.88795 20.2283 9.89197 20.2111C10.6914 20.2319 11.4854 20.0692 12.2163 19.7348C12.8443 19.4422 13.398 19.0036 13.8338 18.4533C14.2642 17.903 14.5863 17.2714 14.7819 16.5939C14.9895 15.8878 15.0937 15.1538 15.0911 14.416H15.4139C15.4149 15.3063 15.2855 16.1916 15.0299 17.0421C14.7829 17.8872 14.3725 18.6721 13.8236 19.3497C13.2545 20.0428 12.5445 20.5987 11.7439 20.9779C10.7892 21.411 9.75198 21.6169 8.70941 21.5802Z" fill="#F2ECD3"/>
<path d="M23.736 20.9394C24.1801 20.9674 24.6243 20.8846 25.0306 20.6978C25.3127 20.5332 25.4554 20.155 25.4554 19.5563V4.29993C25.4554 3.70116 25.3127 3.31948 25.0306 3.15841C24.6246 2.97014 24.1804 2.88604 23.736 2.9133V2.56314H30.8041C31.712 2.56352 32.6194 2.61142 33.5226 2.7067C34.3484 2.78106 35.1584 2.98414 35.9251 3.30898C36.6004 3.59993 37.1873 4.07284 37.6241 4.67808C38.0969 5.39941 38.3284 6.25999 38.2834 7.12918C38.3242 7.98179 38.112 8.827 37.6751 9.55228C37.2752 10.1472 36.7365 10.6288 36.1086 10.9529C35.4434 11.2943 34.7281 11.5203 33.9915 11.6217C33.245 11.729 32.4923 11.784 31.7386 11.7863H30.6953C30.9575 12.2401 31.3425 12.6051 31.8031 12.8368C32.2048 13.0282 32.6417 13.1285 33.0842 13.1309C33.5218 13.1333 33.9545 13.0364 34.3517 12.8472L38.7693 19.5422H38.8169C39.1109 20.0091 39.5187 20.3882 39.9994 20.6417C40.4186 20.8335 40.8729 20.9303 41.3315 20.9254V21.258H38.8169C38.3586 21.2719 37.9019 21.1959 37.4712 21.0339C37.0704 20.8671 36.6968 20.638 36.3634 20.3546C36.0301 20.0713 35.7261 19.7533 35.4561 19.4057C35.1809 19.0555 34.9294 18.7054 34.6983 18.3552L30.3419 11.8423H28.1773V19.5878C28.1773 20.1865 28.3166 20.5647 28.6021 20.7293C29.0163 20.9179 29.4686 21.0007 29.9206 20.9709V21.3035H23.7224L23.736 20.9394ZM30.8279 11.4851C31.4546 11.4895 32.08 11.4249 32.6934 11.2925C33.2412 11.1809 33.7592 10.9493 34.2124 10.6132C34.6574 10.2716 35.0087 9.81671 35.2318 9.29315C35.5013 8.62859 35.6288 7.91205 35.6056 7.1922C35.6056 5.81025 35.2364 4.75978 34.4978 4.04079C33.7593 3.3218 32.6934 2.95764 31.3002 2.9483H28.1909V11.5131L30.8279 11.4851Z" fill="#F2ECD3"/>
<path d="M46.986 22.5536C47.3031 22.5566 47.6199 22.5355 47.934 22.4906C48.1691 22.4621 48.3947 22.3782 48.5933 22.2455C48.7757 22.1039 48.912 21.9085 48.9841 21.6852C49.086 21.3658 49.1321 21.0303 49.12 20.6943V8.42827C49.1119 7.299 49.2478 6.17353 49.5244 5.08077C49.7756 4.08865 50.2493 3.17113 50.9074 2.40206C51.6202 1.6126 52.5073 1.01201 53.4934 0.651272C54.7867 0.186156 56.1508 -0.0344771 57.5202 -1.43847e-05C59.2827 -1.43847e-05 60.6714 0.289442 61.6863 0.868368C62.6104 1.36378 63.3964 2.09417 63.9698 2.99032C64.4727 3.80368 64.806 4.71589 64.9485 5.66903C65.0797 6.50987 65.1501 7.35959 65.1592 8.21117V20.6838C65.1437 21.024 65.2054 21.3633 65.3393 21.6747C65.4414 21.9021 65.6025 22.096 65.8048 22.235C66.0127 22.3637 66.244 22.4471 66.4845 22.4801C66.7532 22.5227 67.0247 22.5438 67.2966 22.5431V22.9458H62.6174V22.5431C63.1462 22.5717 63.6748 22.4821 64.1669 22.2805C64.5068 22.1054 64.714 21.6747 64.7548 20.9954V8.21117C64.7856 6.97383 64.6227 5.73945 64.2723 4.55553C64.01 3.68299 63.5432 2.89045 62.913 2.24799C62.3338 1.67943 61.626 1.269 60.8538 1.05396C59.9965 0.814684 59.1117 0.696881 58.2236 0.703805C56.3977 0.703805 54.9738 1.33876 53.9521 2.60866C52.9304 3.87856 52.4207 5.81843 52.423 8.42827V20.6838C52.4109 21.0198 52.457 21.3553 52.5589 21.6747C52.6321 21.8974 52.7682 22.0925 52.9497 22.235C53.1493 22.3682 53.3761 22.4521 53.6123 22.4801C53.8808 22.5221 62.3014 22.5431 62.6616 22.5431V22.9458H46.986V22.5536Z" fill="#F2ECD3"/>
<path d="M87.9097 21.272H74.4463L72.6793 13.9187H73.0191C73.2868 14.856 73.6196 15.7723 74.0147 16.6605C74.3668 17.4724 74.8366 18.2245 75.408 18.891C75.9559 19.525 76.6245 20.0363 77.3721 20.3931C78.235 20.7809 79.17 20.9686 80.111 20.9429C80.7408 20.9429 81.2709 20.9254 81.7013 20.8904C82.0487 20.8726 82.3919 20.8042 82.7208 20.6873C82.9434 20.612 83.1358 20.4631 83.2679 20.2636C83.3847 20.0504 83.4412 19.8078 83.431 19.5633V11.6322H80.5697C80.0081 11.6068 79.4479 11.7084 78.9284 11.9298C78.5603 12.1038 78.2616 12.403 78.0823 12.7772C77.8959 13.1971 77.7897 13.6501 77.7697 14.1113C77.7391 14.6331 77.7221 15.2178 77.7221 15.8621H77.3823V7.37781H77.7221C77.7179 7.94602 77.7428 8.51407 77.7969 9.07957C77.8239 9.50618 77.9398 9.92181 78.1367 10.2981C78.3326 10.6349 78.6296 10.8967 78.9828 11.0439C79.4928 11.2355 80.0342 11.3223 80.5765 11.2996H83.4378V4.29643C83.4514 4.03477 83.377 3.77627 83.2271 3.56459C83.0252 3.35142 82.7639 3.20825 82.4795 3.15492C82.0131 3.04584 81.5372 2.986 81.0591 2.97633C80.4712 2.94832 79.7304 2.93782 78.8333 2.93782C78.228 2.92973 77.6234 2.98486 77.0289 3.10238C76.5596 3.19675 76.117 3.39903 75.7342 3.69415C75.356 4.00441 75.0398 4.38733 74.8031 4.82167C74.4945 5.39599 74.244 6.00142 74.0555 6.62847H73.7327L75.0512 2.57715H87.9165V2.92731C87.4675 2.8976 87.0183 2.98177 86.6082 3.17242C86.3364 3.33349 86.2005 3.71517 86.2005 4.31393L86.1733 19.8259C86.1703 20.0111 86.215 20.1939 86.3027 20.3556C86.3904 20.5174 86.5181 20.6523 86.6728 20.7468C87.0683 20.9064 87.4924 20.9769 87.9165 20.9534L87.9097 21.272Z" fill="#F2ECD3"/>
<path d="M95.773 2.58066H101.968V2.93081C101.519 2.90111 101.07 2.98528 100.66 3.17593C100.388 3.337 100.252 3.71868 100.252 4.31744V19.5983C100.239 19.8527 100.295 20.1057 100.411 20.3301C100.543 20.5268 100.736 20.6714 100.959 20.7398C101.289 20.847 101.632 20.9071 101.978 20.9184C102.41 20.9429 102.94 20.9569 103.572 20.9569C104.512 20.9827 105.446 20.795 106.307 20.4072C107.056 20.0513 107.726 19.5399 108.275 18.905C108.844 18.2367 109.313 17.485 109.668 16.6745C110.062 15.7857 110.394 14.8695 110.664 13.9327H110.986L109.219 21.286H95.7594V20.9534C96.0414 20.9534 96.2793 20.9534 96.4798 20.9534C96.6557 20.9522 96.8294 20.9128 96.9895 20.8378C97.1377 20.7637 97.2574 20.6404 97.3293 20.4877C97.4228 20.2875 97.4738 20.069 97.4789 19.8469V4.29994C97.4789 3.70117 97.3429 3.3195 97.0677 3.15843C96.6588 2.96779 96.2107 2.88361 95.7628 2.91331L95.773 2.58066Z" fill="#F2ECD3"/>
<path d="M53.7007 16.8916C53.7178 16.9285 53.7422 16.9614 53.7723 16.9882C53.8024 17.015 53.8375 17.0351 53.8754 17.0473C53.9134 17.0594 53.9534 17.0634 53.9929 17.0589C54.0324 17.0544 54.0706 17.0415 54.105 17.0211C54.3531 16.8636 54.8458 16.72 55.0089 16.9791C55.1477 17.1507 55.2297 17.3634 55.2431 17.5863C55.2566 17.8092 55.2007 18.0307 55.0837 18.2187C54.7439 18.7054 54.3837 19.2691 54.4041 19.8644C54.3955 20.1775 54.4657 20.4875 54.608 20.7643C54.6453 20.8238 54.6284 21.209 54.4347 20.8449C54.1635 20.4677 54.031 20.0036 54.0609 19.5352C53.5613 19.031 53.1672 18.6038 53.4832 17.2102C53.5953 16.9406 53.6531 16.7445 53.7007 16.8916Z" fill="#F2ECD3"/>
<path d="M53.3643 18.9715C53.5072 19.1632 53.6616 19.3456 53.8264 19.5177C53.7934 19.8829 53.8386 20.2511 53.9589 20.5962C53.8264 20.5577 53.5104 20.1095 53.3643 18.9715Z" fill="#F2ECD3"/>
<path d="M54.0643 16.832C54.0643 16.832 53.8366 16.5799 53.959 16.4224C54.3652 16.0588 54.8686 15.8306 55.4032 15.7676C55.9503 15.7676 55.4304 16.1177 55.3522 16.2053C55.274 16.2928 55.1041 16.671 55.0124 16.699C54.9206 16.727 54.7269 16.6325 54.5332 16.671C54.3924 16.7107 54.2614 16.7812 54.1493 16.8776C54.1493 16.8776 54.1221 16.8951 54.0643 16.832Z" fill="#F2ECD3"/>
<path d="M55.8619 15.8551C55.8619 15.8551 55.7634 15.8971 55.7872 15.9917C55.8078 16.0632 55.8328 16.1334 55.8619 16.2018C55.8997 16.3327 55.9214 16.468 55.9265 16.6044C55.9265 16.6535 56.025 16.727 56.4362 16.7935C56.6184 16.8403 56.8058 16.8615 56.9935 16.8566C57.109 16.8566 57.143 16.8566 57.1396 16.7935C57.1362 16.7305 57.1838 16.748 57.2416 16.7095C57.2993 16.671 57.3401 16.678 57.2857 16.5904C57.2314 16.5029 57.2857 16.5064 57.3095 16.4399C56.931 16.1653 56.5122 15.9549 56.0692 15.8166C55.9197 15.7816 55.8619 15.8551 55.8619 15.8551Z" fill="#F2ECD3"/>
<path d="M55.3692 16.4364C55.4717 16.5241 55.5969 16.5789 55.7294 16.5939C55.7838 16.5694 55.8109 16.4469 55.7838 16.3348C55.7566 16.2228 55.7192 16.1142 55.5799 16.2018C55.4406 16.2893 55.3862 16.3278 55.3692 16.4364Z" fill="#F2ECD3"/>
<path d="M63.6096 16.8916C63.5925 16.9285 63.5681 16.9614 63.538 16.9882C63.5079 17.015 63.4728 17.0351 63.4349 17.0473C63.3969 17.0594 63.3569 17.0634 63.3174 17.0589C63.2779 17.0544 63.2397 17.0415 63.2052 17.0211C62.9538 16.8636 62.4645 16.72 62.3013 16.9791C62.1626 17.1507 62.0806 17.3634 62.0671 17.5863C62.0537 17.8092 62.1096 18.0307 62.2266 18.2187C62.5664 18.7054 62.9266 19.2691 62.9062 19.8644C62.9169 20.1773 62.8478 20.4876 62.7057 20.7643C62.6683 20.8238 62.6853 21.209 62.879 20.8449C63.1489 20.467 63.2812 20.0034 63.2528 19.5352C63.7523 19.031 64.1465 18.6038 63.8305 17.2102C63.715 16.9406 63.6572 16.7445 63.6096 16.8916Z" fill="#F2ECD3"/>
<path d="M63.9426 18.9715C63.8 19.1625 63.6468 19.3448 63.4839 19.5177C63.5175 19.8832 63.4711 20.2518 63.348 20.5962C63.4839 20.5577 63.7999 20.1095 63.9426 18.9715Z" fill="#F2ECD3"/>
<path d="M63.2426 16.832C63.2426 16.832 63.4737 16.5799 63.348 16.4224C62.9432 16.0587 62.4407 15.8304 61.9072 15.7676C61.3601 15.7676 61.88 16.1177 61.9548 16.2053C62.0295 16.2928 62.2062 16.671 62.2946 16.699C62.3829 16.727 62.5834 16.6325 62.7771 16.671C62.918 16.7107 63.0489 16.7812 63.1611 16.8776C63.1611 16.8776 63.1985 16.8951 63.2426 16.832Z" fill="#F2ECD3"/>
<path d="M61.445 15.8551C61.445 15.8551 61.547 15.8971 61.5232 15.9917C61.5027 16.0637 61.4765 16.134 61.445 16.2018C61.4097 16.3331 61.3892 16.4682 61.3839 16.6044C61.3839 16.6535 61.2819 16.727 60.8742 16.7935C60.692 16.8403 60.5045 16.8615 60.3169 16.8566C60.2013 16.8566 60.1673 16.8566 60.1707 16.7935C60.1741 16.7305 60.1266 16.748 60.0688 16.7095C60.011 16.671 59.9702 16.678 60.0246 16.5904C60.079 16.5029 60.0246 16.5064 59.9974 16.4399C60.3829 16.1645 60.8085 15.9541 61.2582 15.8166C61.3873 15.7816 61.445 15.8551 61.445 15.8551Z" fill="#F2ECD3"/>
<path d="M61.9378 16.4364C61.8353 16.5241 61.71 16.5789 61.5776 16.5939C61.5232 16.5694 61.4926 16.4469 61.5232 16.3348C61.5538 16.2228 61.5877 16.1142 61.7237 16.2018C61.8596 16.2893 61.9378 16.3278 61.9378 16.4364Z" fill="#F2ECD3"/>
<path d="M57.1804 15.5119C57.2354 15.4754 57.2837 15.4292 57.3231 15.3754C57.3571 15.3159 57.4081 15.2984 57.4353 15.3754C57.4624 15.4524 57.5644 15.8096 57.4726 15.8026C57.3809 15.7956 57.3129 15.6485 57.2653 15.624C57.2178 15.5995 57.126 15.54 57.1804 15.5119Z" fill="#F2ECD3"/>
<path d="M57.2517 15.2738C57.2517 15.2738 57.143 15.3999 57.0886 15.3999C57.0342 15.3999 56.9459 15.3334 56.8065 15.2178C56.6672 15.1023 56.5109 14.9937 56.5211 14.9202C56.5278 14.88 56.5369 14.8402 56.5483 14.8011C56.5483 14.7381 56.5483 14.6156 56.674 14.7136C56.8668 14.8501 57.0486 15.0023 57.2177 15.1688C57.2619 15.2423 57.2517 15.2738 57.2517 15.2738Z" fill="#F2ECD3"/>
<path d="M56.5007 14.6471C56.5095 14.6815 56.5095 14.7177 56.5007 14.7521C56.5007 14.8187 56.443 14.8922 56.4226 14.8922C56.4022 14.8922 56.3648 14.8677 56.392 14.7941C56.4192 14.7206 56.392 14.7031 56.4294 14.6751C56.4372 14.6636 56.4482 14.6548 56.4609 14.6498C56.4736 14.6448 56.4875 14.6439 56.5007 14.6471Z" fill="#F2ECD3"/>
<path d="M56.3037 14.6751C56.3037 14.6751 56.3444 14.8502 56.3037 14.8922C56.218 14.9486 56.1197 14.9812 56.0182 14.9867C55.9163 14.9867 55.6988 14.9867 55.6784 14.9412C55.6409 14.8894 55.6 14.8402 55.5561 14.7941C55.5323 14.7696 55.6716 14.6926 55.8007 14.6891C55.9299 14.6856 56.2663 14.6296 56.3037 14.6751Z" fill="#F2ECD3"/>
<path d="M55.4473 14.7871C55.4473 14.7871 55.5697 14.8782 55.5663 14.9097C55.5629 14.9412 55.4439 14.9937 55.3488 15.0392C55.2516 15.0958 55.1408 15.1225 55.0294 15.1163C54.9716 15.0882 54.8832 15.0462 54.9308 15.0077C55.0396 14.9228 55.163 14.8599 55.2944 14.8221C55.4473 14.7871 55.4065 14.7836 55.4473 14.7871Z" fill="#F2ECD3"/>
<path d="M54.8561 15.0392C54.8561 15.0392 54.8833 15.1618 54.9444 15.1758C55.0056 15.1898 54.4007 15.2143 54.3124 15.2213C54.224 15.2283 54.1153 15.2388 54.0983 15.3019H54.0609C54.0689 15.2662 54.088 15.2343 54.1153 15.2108C54.1561 15.1828 54.1357 15.0988 54.173 15.0848C54.2104 15.0708 54.8255 15.0813 54.8561 15.0392Z" fill="#F2ECD3"/>
<path d="M57.0682 14.6576C57.0682 14.6576 57.2245 14.5806 57.2517 14.5175C57.2789 14.4545 57.3333 14.458 57.3571 14.5175C57.3809 14.5771 57.3877 14.549 57.4081 14.6576C57.4284 14.7661 57.4556 15.0532 57.3707 14.9867C57.2857 14.9202 57.1804 14.8011 57.1396 14.7696C57.0988 14.7381 57.0479 14.7031 57.0682 14.6751C57.0886 14.6471 57.0682 14.6576 57.0682 14.6576Z" fill="#F2ECD3"/>
<path d="M56.5551 13.6806C56.5143 13.6561 56.4735 13.6806 56.4565 13.7472C56.4396 13.8137 56.4056 13.8557 56.3954 13.8837C56.4199 14.018 56.4853 14.1407 56.5823 14.2339C56.6342 14.2969 56.6898 14.3565 56.7488 14.4125C56.8285 14.4668 56.914 14.5114 57.0037 14.5455C57.0338 14.5479 57.064 14.5412 57.0905 14.5263C57.117 14.5114 57.1388 14.4889 57.1532 14.4615C57.1939 14.3984 57.2177 14.3985 57.2143 14.3459C57.2109 14.2934 57.0478 14.1638 56.9901 14.0763C56.8575 13.9306 56.7118 13.7981 56.5551 13.6806Z" fill="#F2ECD3"/>
<path d="M56.2391 13.8417C56.2391 13.8417 56.2391 13.6421 56.2935 13.6071C56.3478 13.5721 56.3444 13.5861 56.375 13.6246C56.4056 13.6631 56.409 13.7472 56.375 13.7752L56.2866 13.8417C56.2866 13.8417 56.2425 13.8767 56.2391 13.8417Z" fill="#F2ECD3"/>
<path d="M55.24 13.5896C55.24 13.5896 55.3216 13.7227 55.376 13.7997C55.4303 13.8767 55.4847 13.8837 55.6512 13.8802H55.9333C56.0148 13.8802 56.1032 13.9153 56.1304 13.7927C56.1444 13.7369 56.1614 13.682 56.1813 13.6281C56.1813 13.5756 55.974 13.5301 55.8823 13.5476C55.7905 13.5651 55.2163 13.5021 55.24 13.5896Z" fill="#F2ECD3"/>
<path d="M54.4619 13.8137C54.4619 13.8137 54.5128 13.9573 54.5672 13.9783C54.691 13.9859 54.8151 13.9717 54.9342 13.9363C55.028 13.8946 55.1178 13.8442 55.2027 13.7857C55.2264 13.7647 55.2536 13.6771 55.2264 13.6701C55.1993 13.6631 55.2264 13.6456 55.1959 13.6281C55.1653 13.6106 55.0871 13.5896 54.9036 13.6281C54.7201 13.6666 54.4619 13.7752 54.4619 13.8137Z" fill="#F2ECD3"/>
<path d="M54.3939 13.8592C54.3939 13.8592 54.4686 13.9713 54.472 13.9818C54.4754 13.9923 54.506 13.9818 54.506 13.9818V14.0308C54.506 14.0308 53.874 14.0308 53.7822 14.0308C53.6905 14.0308 53.5172 14.0098 53.5036 14.0308C53.5015 14.0359 53.4983 14.0405 53.4943 14.0443C53.4903 14.048 53.4855 14.0508 53.4803 14.0525C53.4752 14.0542 53.4697 14.0547 53.4643 14.0539C53.459 14.0532 53.4538 14.0513 53.4492 14.0483C53.4492 14.0483 53.4934 13.9678 53.5104 13.9678C53.5274 13.9678 53.5274 13.9082 53.5376 13.8662C53.6958 13.8385 53.8568 13.8314 54.0167 13.8452C54.1424 13.8522 54.3497 13.8207 54.3939 13.8592Z" fill="#F2ECD3"/>
<path d="M57.0343 13.6036C57.0343 13.6036 57.2008 13.6246 57.245 13.5651C57.2891 13.5055 57.3401 13.432 57.3639 13.467C57.4117 13.5531 57.4341 13.6517 57.4285 13.7506C57.4217 13.8437 57.3963 13.9344 57.3537 14.0168C57.3265 14.0658 57.3537 14.1778 57.2144 13.9817C57.0751 13.7857 57.0411 13.7401 57.0343 13.7086C57.0306 13.6737 57.0306 13.6385 57.0343 13.6036Z" fill="#F2ECD3"/>
<path d="M56.6367 12.3991C56.901 12.6731 57.1294 12.9815 57.3163 13.3165C57.2959 13.3445 57.3163 13.4005 57.2415 13.4355C57.1872 13.4606 57.1316 13.4828 57.075 13.5021C57.0371 13.5048 56.9991 13.4976 56.9646 13.481C56.9302 13.4645 56.9003 13.4392 56.8779 13.4075C56.7828 13.2809 56.6965 13.1476 56.6197 13.0083C56.5211 12.8298 56.4702 12.7247 56.4464 12.6792C56.4226 12.6337 56.4702 12.5951 56.5313 12.5356C56.5698 12.4929 56.605 12.4473 56.6367 12.3991Z" fill="#F2ECD3"/>
<path d="M56.5007 12.315C56.4634 12.2415 56.3954 12.3465 56.3614 12.3815C56.3274 12.4166 56.2935 12.4306 56.2935 12.5041C56.2937 12.521 56.2987 12.5375 56.3078 12.5516C56.3169 12.5657 56.3298 12.5767 56.3449 12.5834C56.36 12.5901 56.3767 12.5921 56.3929 12.5892C56.4091 12.5863 56.4241 12.5787 56.4362 12.5671C56.4675 12.5354 56.4898 12.4954 56.5007 12.4516C56.516 12.4074 56.516 12.3592 56.5007 12.315Z" fill="#F2ECD3"/>
<path d="M56.2866 12.28C56.2866 12.28 56.2221 12.336 56.2221 12.3921V12.5216C56.2221 12.5216 55.8823 12.6547 55.6818 12.5216C55.4813 12.3886 55.2468 12.308 55.24 12.28C55.2332 12.252 55.24 12.0979 55.24 12.0804C55.24 12.0629 55.2196 12.0209 55.24 12.0314C55.2604 12.0419 55.7192 12.0874 55.7565 12.0944C55.8734 12.11 55.9877 12.1418 56.0963 12.189C56.1578 12.2235 56.2214 12.2539 56.2866 12.28Z" fill="#F2ECD3"/>
<path d="M55.1415 12.0244C55.1415 12.0244 55.1415 12.1539 55.1415 12.196C55.1415 12.238 55.0872 12.2415 54.9207 12.266C54.7935 12.2858 54.6652 12.2975 54.5367 12.301C54.4687 12.301 54.3158 12.273 54.3056 12.1925C54.2954 12.1119 54.3056 12.0629 54.377 12.0419C54.4857 12.0016 54.6019 11.9872 54.7168 11.9999C54.8833 12.0209 55.1415 11.9754 55.1415 12.0244Z" fill="#F2ECD3"/>
<path d="M54.2002 12.0594C54.1898 12.1149 54.1898 12.172 54.2002 12.2275C54.2182 12.2467 54.2341 12.2678 54.2478 12.2905C54.1107 12.3007 53.973 12.2816 53.8434 12.2345C53.7161 12.1745 53.5843 12.1253 53.4492 12.0874C53.351 12.0758 53.2518 12.0758 53.1536 12.0874C53.1051 12.0946 53.0559 12.0946 53.0074 12.0874V12.0524C53.0074 12.0524 53.0652 12.0769 53.1434 11.9964C53.2215 11.9159 53.2079 11.9019 53.2011 11.8633C53.1943 11.8248 53.2963 11.8633 53.3405 11.9054C53.4179 11.9435 53.4987 11.974 53.5817 11.9964C53.6939 12.0213 53.8074 12.04 53.9216 12.0524C54.0099 12.0349 54.1628 12.0069 54.2002 12.0594Z" fill="#F2ECD3"/>
<path d="M56.8915 12.2345C56.9815 12.2153 57.0662 12.1758 57.1396 12.1189C57.2144 12.0419 57.2653 12.0594 57.2721 12.1189C57.2952 12.1947 57.3021 12.2747 57.2925 12.3535C57.279 12.4457 57.2527 12.5353 57.2144 12.6196C57.1872 12.6687 57.2144 12.8262 57.1226 12.6687C57.0725 12.5698 57.0169 12.4739 56.9561 12.3815C56.927 12.3365 56.9051 12.2868 56.8915 12.2345Z" fill="#F2ECD3"/>
<path d="M56.7556 11.9929C56.7556 11.9929 56.878 12.1644 56.9765 12.1014C57.0751 12.0384 57.1158 12.0104 57.1396 11.9614C57.1634 11.9123 57.1396 11.8248 57.0581 11.7057C56.9765 11.5867 56.9663 11.4956 56.8474 11.2996C56.7783 11.1604 56.6877 11.0338 56.5789 10.9249C56.5212 10.9004 56.5279 10.8969 56.4668 10.9809C56.4056 11.0649 56.3071 11.0684 56.3173 11.1385C56.3361 11.2725 56.3837 11.4005 56.4566 11.5131C56.5439 11.6809 56.6439 11.8413 56.7556 11.9929Z" fill="#F2ECD3"/>
<path d="M56.1983 11.0615C56.19 11.01 56.1984 10.9571 56.2221 10.9109C56.2459 10.8444 56.2221 10.8269 56.2867 10.7883C56.3512 10.7498 56.4124 10.7673 56.4294 10.8374C56.4344 10.8734 56.4287 10.9101 56.4129 10.9426C56.3971 10.9752 56.372 11.002 56.341 11.0195C56.2969 11.0335 56.1983 11.107 56.1983 11.0615Z" fill="#F2ECD3"/>
<path d="M56.2153 10.7323C56.1817 10.7804 56.1585 10.8353 56.1473 10.8934C56.145 10.9352 56.1334 10.976 56.1133 11.0125C55.974 11.0336 55.832 11.0264 55.6954 10.9914C55.5832 10.9319 55.2842 10.8759 55.2468 10.7883C55.2094 10.7008 55.1415 10.6833 55.1517 10.6063C55.1571 10.5574 55.1571 10.5081 55.1517 10.4592C55.3659 10.438 55.5821 10.4618 55.7871 10.5292C55.9672 10.6063 56.2153 10.7323 56.2153 10.7323Z" fill="#F2ECD3"/>
<path d="M55.0089 10.4101C55.0497 10.4101 55.0973 10.4102 55.1007 10.5082C55.1041 10.6062 55.2026 10.5922 55.1007 10.6378C54.9988 10.6833 54.9206 10.7043 54.907 10.7113C54.8486 10.7231 54.7896 10.7313 54.7303 10.7358C54.6089 10.7526 54.4855 10.7454 54.3667 10.7148C54.3238 10.697 54.2879 10.665 54.2648 10.6238C54.255 10.5939 54.247 10.5635 54.241 10.5327C54.2455 10.5117 54.2542 10.4918 54.2664 10.4743C54.2787 10.4568 54.2943 10.4421 54.3123 10.4312C54.3599 10.4066 54.3293 10.3857 54.4415 10.3857C54.5536 10.3857 54.8696 10.4067 54.9138 10.4067L55.0089 10.4101Z" fill="#F2ECD3"/>
<path d="M54.1425 10.4172C54.1333 10.4657 54.1333 10.5157 54.1425 10.5642C54.1512 10.5917 54.1638 10.6176 54.1798 10.6413C54.1853 10.6583 54.1853 10.6767 54.1798 10.6938C54.007 10.6758 53.8376 10.6322 53.6769 10.5642C53.5522 10.4817 53.41 10.4312 53.2623 10.4172C53.191 10.4172 53.0822 10.4172 53.0482 10.4172H52.9803V10.3681C53.0075 10.3675 53.0343 10.3609 53.0589 10.3488C53.0835 10.3368 53.1053 10.3195 53.123 10.2981C53.1447 10.2684 53.1587 10.2334 53.1638 10.1966C53.2756 10.2862 53.4101 10.3409 53.5512 10.3541C53.7823 10.3646 54.1425 10.4172 54.1425 10.4172Z" fill="#F2ECD3"/>
<path d="M60.13 15.5119C60.0744 15.4748 60.0251 15.4287 59.9839 15.3754C59.9533 15.3159 59.8989 15.2984 59.8751 15.3754C59.8513 15.4524 59.746 15.8096 59.8377 15.8026C59.9295 15.7956 59.994 15.6485 60.0416 15.624C60.0892 15.5995 60.1707 15.54 60.13 15.5119Z" fill="#F2ECD3"/>
<path d="M60.0416 15.2738C60.0416 15.2738 60.1538 15.3999 60.2081 15.3999C60.2625 15.3999 60.3508 15.3334 60.4902 15.2178C60.6295 15.1023 60.7824 14.9937 60.7722 14.9202C60.7683 14.8798 60.7603 14.8399 60.7484 14.8011C60.7484 14.7381 60.7484 14.6156 60.6193 14.7136C60.4272 14.851 60.2454 15.0031 60.0756 15.1688C60.0348 15.2423 60.0416 15.2738 60.0416 15.2738Z" fill="#F2ECD3"/>
<path d="M60.7994 14.6471C60.7928 14.6818 60.7928 14.7174 60.7994 14.7521C60.7994 14.8186 60.8605 14.8922 60.8809 14.8922C60.9013 14.8922 60.9387 14.8677 60.9115 14.7941C60.8843 14.7206 60.9115 14.7031 60.8741 14.6751C60.8658 14.6633 60.8542 14.6543 60.8409 14.6493C60.8276 14.6444 60.8131 14.6436 60.7994 14.6471Z" fill="#F2ECD3"/>
<path d="M60.9931 14.6751C60.9931 14.6751 60.9523 14.8502 60.9931 14.8922C61.0784 14.9492 61.1769 14.9818 61.2785 14.9867C61.3805 14.9867 61.598 14.9867 61.6183 14.9412C61.6559 14.8884 61.698 14.8392 61.7441 14.7941C61.7645 14.7696 61.6285 14.6926 61.496 14.6891C61.3635 14.6856 61.0271 14.6296 60.9931 14.6751Z" fill="#F2ECD3"/>
<path d="M61.846 14.7871C61.846 14.7871 61.7237 14.8782 61.7305 14.9097C61.7373 14.9412 61.8494 14.9937 61.9446 15.0392C62.0397 15.0848 62.2096 15.1443 62.264 15.1163C62.3184 15.0882 62.4101 15.0462 62.3625 15.0077C62.2546 14.9214 62.131 14.8583 61.9989 14.8221C61.846 14.7871 61.8868 14.7836 61.846 14.7871Z" fill="#F2ECD3"/>
<path d="M62.4373 15.0392C62.4373 15.0392 62.4101 15.1618 62.3524 15.1758C62.2946 15.1898 62.8961 15.2143 62.981 15.2213C63.066 15.2283 63.1781 15.2388 63.1985 15.3019H63.2325C63.2244 15.2662 63.2054 15.2343 63.1781 15.2108C63.1373 15.1828 63.1781 15.0988 63.1237 15.0848C63.0694 15.0708 62.4679 15.0813 62.4373 15.0392Z" fill="#F2ECD3"/>
<path d="M60.2387 14.6576C60.2387 14.6576 60.079 14.5806 60.0518 14.5175C60.0246 14.4545 59.9702 14.458 59.9498 14.5175C59.9294 14.5771 59.9159 14.549 59.8989 14.6576C59.8819 14.7661 59.8479 15.0532 59.9328 14.9867C60.0178 14.9202 60.1265 14.8011 60.1673 14.7696C60.2081 14.7381 60.2557 14.7031 60.2387 14.6751C60.2217 14.6471 60.2387 14.6576 60.2387 14.6576Z" fill="#F2ECD3"/>
<path d="M60.7416 13.6806C60.779 13.6561 60.8198 13.6806 60.8368 13.7472C60.8549 13.7943 60.8765 13.84 60.9013 13.8837C60.8751 14.0173 60.8099 14.1395 60.7144 14.2339C60.6626 14.2969 60.6069 14.3565 60.5479 14.4125C60.4678 14.4661 60.3824 14.5107 60.2931 14.5455C60.2625 14.5477 60.2319 14.541 60.2049 14.5262C60.1778 14.5113 60.1554 14.4889 60.1401 14.4615C60.1028 14.3984 60.079 14.3985 60.079 14.3459C60.079 14.2934 60.2455 14.1638 60.3067 14.0763C60.4385 13.9298 60.5842 13.7972 60.7416 13.6806Z" fill="#F2ECD3"/>
<path d="M61.0543 13.8417C61.0543 13.8417 61.0543 13.6421 61.0033 13.6071C60.9523 13.5721 60.9489 13.5861 60.9217 13.6246C60.906 13.6464 60.8975 13.6728 60.8975 13.6999C60.8975 13.727 60.906 13.7534 60.9217 13.7752L61.0101 13.8417C61.0101 13.8417 61.0543 13.8767 61.0543 13.8417Z" fill="#F2ECD3"/>
<path d="M62.0533 13.5896C62.0533 13.5896 61.9717 13.7227 61.9208 13.7997C61.8698 13.8767 61.812 13.8837 61.6421 13.8802H61.3601C61.2785 13.8802 61.1902 13.9153 61.163 13.7927C61.1358 13.6701 61.1222 13.6771 61.1154 13.6281C61.1086 13.5791 61.3193 13.5301 61.4144 13.5476C61.5096 13.5651 62.0771 13.5021 62.0533 13.5896Z" fill="#F2ECD3"/>
<path d="M62.8213 13.8137C62.8213 13.8137 62.7703 13.9573 62.716 13.9783C62.5922 13.9859 62.4681 13.9717 62.349 13.9363C62.2542 13.8945 62.1632 13.8441 62.0771 13.7857C62.0567 13.7647 62.0295 13.6771 62.0533 13.6701C62.0771 13.6631 62.0533 13.6456 62.0873 13.6281C62.1213 13.6106 62.1961 13.5896 62.3761 13.6281C62.5562 13.6666 62.8383 13.7752 62.8213 13.8137Z" fill="#F2ECD3"/>
<path d="M62.8994 13.8592C62.8994 13.8592 62.8247 13.9712 62.8213 13.9818C62.8179 13.9923 62.7907 13.9818 62.7907 13.9818V14.0308C62.7907 14.0308 63.4194 14.0308 63.5145 14.0308C63.6097 14.0308 63.7762 14.0098 63.7932 14.0308C63.7953 14.0359 63.7984 14.0405 63.8025 14.0443C63.8065 14.048 63.8112 14.0508 63.8164 14.0525C63.8216 14.0542 63.827 14.0547 63.8324 14.0539C63.8378 14.0532 63.8429 14.0513 63.8475 14.0483C63.8475 14.0483 63.8 13.9678 63.7864 13.9678C63.7728 13.9678 63.7694 13.9082 63.7592 13.8662C63.6009 13.8386 63.44 13.8315 63.28 13.8452C63.1509 13.8522 62.9572 13.8207 62.8994 13.8592Z" fill="#F2ECD3"/>
<path d="M60.2625 13.6036C60.2625 13.6036 60.096 13.6246 60.0484 13.5651C60.0008 13.5055 59.9566 13.432 59.9295 13.467C59.8846 13.5541 59.8635 13.6521 59.8683 13.7506C59.8741 13.8435 59.8984 13.934 59.9396 14.0168C59.9702 14.0658 59.9566 14.1778 60.079 13.9817C60.1447 13.894 60.2059 13.8029 60.2625 13.7086C60.2661 13.6737 60.2661 13.6385 60.2625 13.6036Z" fill="#F2ECD3"/>
<path d="M60.6567 12.3991C60.3935 12.6741 60.1651 12.9824 59.9771 13.3165C60.0008 13.3445 59.977 13.4005 60.0552 13.4355C60.1093 13.4612 60.1649 13.4834 60.2217 13.5021C60.2597 13.5048 60.2976 13.4976 60.3321 13.481C60.3666 13.4645 60.3964 13.4392 60.4188 13.4075C60.5128 13.2801 60.5991 13.1468 60.6771 13.0083C60.7756 12.8298 60.8232 12.7247 60.847 12.6792C60.8708 12.6337 60.8266 12.5951 60.7654 12.5356C60.7253 12.4935 60.6889 12.4478 60.6567 12.3991Z" fill="#F2ECD3"/>
<path d="M60.8028 12.315C60.8368 12.2415 60.9081 12.3465 60.9387 12.3815C60.9693 12.4166 61.0067 12.4306 61.0067 12.5041C61.0065 12.521 61.0015 12.5375 60.9924 12.5516C60.9832 12.5657 60.9703 12.5767 60.9552 12.5834C60.9401 12.5901 60.9234 12.5921 60.9072 12.5892C60.891 12.5863 60.876 12.5787 60.864 12.5671C60.8323 12.5362 60.8109 12.4958 60.8028 12.4516C60.7875 12.4074 60.7875 12.3592 60.8028 12.315Z" fill="#F2ECD3"/>
<path d="M61.0067 12.28C61.0067 12.28 61.0712 12.336 61.0712 12.3921V12.5216C61.0712 12.5216 61.411 12.6547 61.6149 12.5216C61.8188 12.3886 62.0499 12.308 62.0533 12.28C62.0567 12.252 62.0533 12.0979 62.0533 12.0804C62.0533 12.0629 62.0771 12.0209 62.0533 12.0314C62.0295 12.0419 61.5741 12.0874 61.5368 12.0944C61.42 12.1106 61.3058 12.1424 61.1969 12.189C61.1359 12.2243 61.0723 12.2548 61.0067 12.28Z" fill="#F2ECD3"/>
<path d="M62.1621 12.0244C62.1621 12.0244 62.1417 12.1539 62.1417 12.196C62.1417 12.238 62.196 12.2415 62.3625 12.266C62.4908 12.2858 62.6202 12.2975 62.7499 12.301C62.8179 12.301 62.9674 12.273 62.981 12.1925C62.9946 12.1119 62.981 12.0629 62.9062 12.0419C62.7975 12.0014 62.6813 11.987 62.5664 11.9999C62.4135 12.0209 62.1688 11.9754 62.1621 12.0244Z" fill="#F2ECD3"/>
<path d="M63.0931 12.0594C63.0931 12.0594 63.0931 12.196 63.0931 12.2275C63.0931 12.259 63.0455 12.2905 63.0455 12.2905C63.1826 12.3008 63.3203 12.2817 63.4499 12.2345C63.5781 12.1738 63.7111 12.1246 63.8475 12.0874C63.9457 12.0758 64.0449 12.0758 64.1431 12.0874C64.1904 12.0947 64.2385 12.0947 64.2859 12.0874V12.0524C64.2859 12.0524 64.2281 12.0769 64.1533 11.9964C64.0786 11.9159 64.0888 11.9019 64.0956 11.8633C64.1024 11.8248 63.997 11.8633 63.9562 11.9054C63.8788 11.9435 63.798 11.974 63.715 11.9964C63.63 12.0244 63.4465 12.0384 63.3752 12.0524C63.3038 12.0664 63.1305 12.0069 63.0931 12.0594Z" fill="#F2ECD3"/>
<path d="M60.4018 12.2345C60.313 12.215 60.2294 12.1756 60.1572 12.1189C60.0824 12.0419 60.0314 12.0594 60.0246 12.1189C60.0001 12.1944 59.992 12.2745 60.0009 12.3535C60.0176 12.4449 60.0438 12.5341 60.079 12.6196C60.1062 12.6687 60.079 12.8262 60.1708 12.6687C60.2625 12.5111 60.2795 12.4831 60.3373 12.3815C60.3664 12.3365 60.3882 12.2868 60.4018 12.2345Z" fill="#F2ECD3"/>
<path d="M60.5377 11.9929C60.5377 11.9929 60.4154 12.1644 60.3202 12.1014C60.2251 12.0384 60.1809 12.0104 60.1571 11.9614C60.1333 11.9123 60.1571 11.8248 60.2353 11.7057C60.3134 11.5867 60.3304 11.4956 60.4494 11.2996C60.5176 11.1608 60.6071 11.0343 60.7144 10.9249C60.7722 10.9004 60.7654 10.8969 60.8266 10.9809C60.8877 11.0649 60.9897 11.0684 60.9761 11.1385C60.9614 11.273 60.9147 11.4017 60.8401 11.5131C60.7508 11.6804 60.6498 11.8408 60.5377 11.9929Z" fill="#F2ECD3"/>
<path d="M61.0984 11.0615C61.1074 11.0096 61.0978 10.956 61.0712 10.9109C61.0475 10.8444 61.0712 10.8269 61.0067 10.7883C60.9421 10.7498 60.8843 10.7673 60.8639 10.8374C60.8603 10.8732 60.8666 10.9094 60.8823 10.9417C60.8979 10.974 60.9222 11.001 60.9523 11.0195C60.9965 11.0335 61.0984 11.107 61.0984 11.0615Z" fill="#F2ECD3"/>
<path d="M61.0814 10.7323C61.115 10.7804 61.1382 10.8353 61.1494 10.8934C61.1513 10.9348 61.1617 10.9754 61.18 11.0124C61.3193 11.0336 61.4613 11.0264 61.5979 10.9914C61.7101 10.9319 62.0091 10.8759 62.0499 10.7883C62.0907 10.7008 62.1552 10.6833 62.1416 10.6062C62.1362 10.5574 62.1362 10.508 62.1416 10.4592C61.9285 10.4381 61.7135 10.4619 61.5096 10.5292C61.3295 10.6062 61.0814 10.7323 61.0814 10.7323Z" fill="#F2ECD3"/>
<path d="M62.2776 10.4101C62.2334 10.4101 62.1858 10.4102 62.1824 10.5082C62.179 10.6062 62.0839 10.5922 62.1824 10.6378C62.281 10.6833 62.3625 10.7043 62.3795 10.7113C62.4368 10.723 62.4946 10.7312 62.5528 10.7358C62.6754 10.7523 62.7998 10.7452 62.9198 10.7148C62.9611 10.6957 62.9955 10.6639 63.0184 10.6238C63.0304 10.5944 63.0395 10.5639 63.0456 10.5327C63.0411 10.5117 63.0324 10.4918 63.0201 10.4743C63.0078 10.4568 62.9922 10.4421 62.9742 10.4312C62.9266 10.4066 62.9538 10.3857 62.8417 10.3857C62.7295 10.3857 62.4135 10.4067 62.3693 10.4067L62.2776 10.4101Z" fill="#F2ECD3"/>
<path d="M63.1509 10.4172C63.1619 10.4655 63.1619 10.5159 63.1509 10.5642C63.1427 10.5912 63.1312 10.6171 63.1169 10.6413C63.1115 10.6583 63.1115 10.6767 63.1169 10.6938C63.2886 10.6757 63.4569 10.632 63.6165 10.5642C63.7414 10.4821 63.8835 10.4317 64.031 10.4172C64.1024 10.4172 64.2111 10.4172 64.2485 10.4172H64.3165V10.3681C64.2892 10.3675 64.2625 10.3609 64.2379 10.3488C64.2133 10.3368 64.1914 10.3195 64.1738 10.2981C64.1521 10.2684 64.138 10.2334 64.133 10.1966C64.0201 10.2866 63.8844 10.3413 63.7422 10.3541C63.5281 10.3646 63.1509 10.4172 63.1509 10.4172Z" fill="#F2ECD3"/>
<path d="M57.5202 16.0162C57.5202 16.0162 57.6119 16.3663 57.7886 16.4609C57.9653 16.5554 57.9925 16.5834 57.9483 16.678C57.8779 16.7813 57.7862 16.8674 57.6799 16.9301C57.6595 16.9301 57.3299 16.6395 57.5202 16.0162Z" fill="#F2ECD3"/>
<path d="M58.1216 16.6395C58.2336 16.665 58.3495 16.665 58.4615 16.6395L58.5974 16.5939C58.5974 16.5939 58.4819 17.0561 58.4411 17.0491C58.4003 17.0421 58.1216 16.7935 58.1216 16.6395Z" fill="#F2ECD3"/>
<path d="M59.7834 16.0162C59.7834 16.0162 59.6916 16.3663 59.5149 16.4609C59.3382 16.5554 59.311 16.5834 59.3552 16.678C59.4257 16.7813 59.5173 16.8674 59.6236 16.9301C59.644 16.9301 59.9736 16.6395 59.7834 16.0162Z" fill="#F2ECD3"/>
<path d="M59.1819 16.6395C59.07 16.665 58.954 16.665 58.8421 16.6395L58.7061 16.5939C58.7061 16.5939 58.8217 17.0561 58.8624 17.0491C58.9032 17.0421 59.1819 16.7935 59.1819 16.6395Z" fill="#F2ECD3"/>
<path d="M57.6425 14.6436V15.729C57.6425 15.729 57.6425 15.7291 57.6086 15.8026C57.5746 15.8761 57.6459 16.1738 57.8804 16.3558C57.9571 16.4295 58.0502 16.4827 58.1515 16.5108C58.2528 16.5389 58.3592 16.541 58.4615 16.5169C58.594 16.4644 58.6314 16.3418 58.679 16.4154C58.7189 16.469 58.7716 16.5112 58.8319 16.5379C58.9293 16.5574 59.0296 16.556 59.1265 16.5339C59.2234 16.5118 59.3149 16.4693 59.3952 16.4092C59.4755 16.3491 59.5429 16.2727 59.5933 16.1846C59.6438 16.0965 59.6761 15.9986 59.6882 15.8971C59.6885 15.8539 59.6804 15.811 59.6644 15.7711V14.6751C59.6965 14.6051 59.7329 14.5373 59.7732 14.472C59.8275 14.3915 59.8615 14.1709 59.7086 14.0938C59.4854 13.9994 59.2352 13.9994 59.012 14.0938C58.8523 14.1989 58.7809 14.2864 58.594 14.2374C58.4071 14.1884 58.4479 14.1428 58.2372 14.1148C58.0265 14.0868 57.5032 14.0343 57.4964 14.1533C57.4896 14.2724 57.3707 14.3809 57.6425 14.6436Z" fill="#F2ECD3"/>
<path d="M57.544 13.9818V13.7086C57.9196 13.7793 58.3006 13.8156 58.6824 13.8172C59.1343 13.7962 59.78 13.7086 59.78 13.7086V13.9818C59.78 13.9818 58.9916 13.8207 58.6892 14.0658C58.3179 13.9524 57.9271 13.9237 57.544 13.9818Z" fill="#F2ECD3"/>
<path d="M57.5202 13.3865C57.5202 13.3865 57.6153 13.7087 58.6518 13.7087C59.6882 13.7087 59.8411 13.5546 59.8309 13.4916C59.8207 13.4285 59.8513 13.3655 59.6712 13.3515C59.4911 13.3375 58.7877 13.4145 58.6518 13.411C58.5158 13.4075 57.9721 13.3515 57.8974 13.348C57.8226 13.3445 57.4522 13.306 57.5202 13.3865Z" fill="#F2ECD3"/>
<path d="M57.758 12.7702C58.3613 12.805 58.966 12.805 59.5693 12.7702C59.7188 12.7702 59.8479 12.8017 59.8683 12.8963C59.8887 12.9908 59.8683 13.2079 59.6746 13.2464C59.4809 13.285 58.8183 13.2464 58.6925 13.2464H57.6017C57.527 13.2464 57.459 13.0609 57.4624 12.9558C57.4658 12.8508 57.5202 12.7597 57.758 12.7702Z" fill="#F2ECD3"/>
<path d="M57.6222 12.6617C57.6222 12.6617 58.8795 12.6197 59.6067 12.6617C59.6984 12.6617 59.7698 12.7177 59.8207 12.7072C59.8717 12.6967 59.9091 12.5531 59.8955 12.4411C59.8819 12.329 59.8955 12.2275 59.8955 12.168C59.8279 12.0926 59.7451 12.0335 59.6529 11.9948C59.5608 11.9561 59.4614 11.9387 59.362 11.9439C59.1139 11.9649 58.6518 11.9439 58.5397 11.9439C58.4275 11.9439 57.6833 11.8983 57.4998 12.0244C57.3163 12.1505 57.3673 12.231 57.3775 12.322C57.3877 12.4131 57.3775 12.6197 57.4251 12.6442C57.4726 12.6687 57.4115 12.7457 57.6222 12.6617Z" fill="#F2ECD3"/>
<path d="M57.544 11.8773C57.8119 11.8017 58.0885 11.764 58.3663 11.7653C58.5491 11.7988 58.7355 11.8058 58.9202 11.7863C59.0444 11.7721 59.1698 11.7721 59.294 11.7863C59.4299 11.8108 59.7086 11.8283 59.7493 11.8808C59.7901 11.9333 59.8309 11.9824 59.8717 11.9228C59.9073 11.8088 59.9323 11.6916 59.9464 11.5727C59.9774 11.4498 59.9774 11.3209 59.9464 11.198C59.9193 11.149 59.6746 10.9214 58.8488 10.9599L58.0197 10.9984C58.0197 10.9984 57.3401 10.9389 57.3672 11.2715C57.3944 11.6042 57.3333 11.9298 57.4284 11.9263C57.5236 11.9228 57.544 11.8773 57.544 11.8773Z" fill="#F2ECD3"/>
<path d="M57.4624 10.8794C57.4624 10.8794 57.3945 11.0124 57.6731 10.9284C58.0057 10.8366 58.3482 10.7884 58.6925 10.7848C58.9997 10.8038 59.3046 10.8519 59.6032 10.9284C59.712 10.9809 59.8683 11.0124 59.8921 10.9634C59.8917 10.8194 59.8826 10.6756 59.8649 10.5327C59.8649 10.4872 59.9838 10.116 59.3756 10.0495C58.8483 9.99602 58.3169 10.0066 57.792 10.081C57.7309 10.1265 57.3945 10.2211 57.4081 10.4662C57.4216 10.7113 57.408 10.7848 57.4624 10.8794Z" fill="#F2ECD3"/>
<path d="M57.5609 9.82891C57.5609 9.82891 57.7308 8.77843 58.6551 8.77843C58.9198 8.77274 59.1767 8.87021 59.3745 9.05135C59.5724 9.2325 59.6965 9.48393 59.7222 9.75537C59.7222 9.81139 59.7222 9.97598 59.5251 9.90245C59.224 9.80256 58.9127 9.73909 58.5974 9.71335C58.3209 9.75049 58.0465 9.80191 57.775 9.86742C57.6017 9.93395 57.5202 9.95496 57.5609 9.82891Z" fill="#F2ECD3"/>
<path d="M58.1998 8.77844C58.2647 8.72466 58.3392 8.68461 58.419 8.66058C58.4989 8.63654 58.5826 8.62898 58.6654 8.63837C59.0052 8.63837 59.0901 8.77844 59.0901 8.77844L59.0086 8.79945C58.8925 8.75617 58.7714 8.72909 58.6484 8.71892C58.5324 8.72209 58.4176 8.74456 58.3086 8.78545C58.2724 8.79389 58.2347 8.79145 58.1998 8.77844Z" fill="#F2ECD3"/>
<path d="M58.6382 8.54383C58.7719 8.55537 58.9034 8.58601 59.0289 8.63488C59.0527 8.63488 59.1445 8.74692 59.1547 8.6944C59.1613 8.55804 59.1498 8.42139 59.1207 8.2882C59.0283 8.17018 58.9222 8.06435 58.8047 7.97308C58.7655 7.94427 58.7186 7.92877 58.6704 7.92877C58.6223 7.92877 58.5754 7.94427 58.5362 7.97308C58.4464 8.04066 58.3602 8.11313 58.278 8.19017C58.2488 8.21044 58.2247 8.23747 58.2076 8.2691C58.1905 8.30073 58.1808 8.33608 58.1794 8.37226C58.1741 8.46906 58.1741 8.56608 58.1794 8.66288C58.1794 8.70489 58.2134 8.6839 58.261 8.63488C58.3799 8.57997 58.5079 8.54906 58.6382 8.54383Z" fill="#F2ECD3"/>
<path d="M58.3154 7.85753C58.3606 7.81346 58.414 7.77926 58.4724 7.757C58.5308 7.73474 58.593 7.72487 58.6552 7.72798C58.7174 7.72487 58.7795 7.73474 58.8379 7.757C58.8963 7.77926 58.9497 7.81346 58.995 7.85753C58.995 7.85753 58.9576 7.90306 58.927 7.88906C58.845 7.82781 58.7463 7.79473 58.645 7.79451C58.5505 7.7912 58.4575 7.81945 58.3799 7.87504C58.3799 7.87504 58.3426 7.89955 58.3154 7.85753Z" fill="#F2ECD3"/>
<path d="M58.244 7.72796L58.2882 7.3428C58.2882 7.3428 58.2882 7.29027 58.3596 7.22724C58.4309 7.16421 58.5736 7.05917 58.5736 7.05917C58.5736 7.05917 58.6484 6.97163 58.7503 7.05917C58.8523 7.14671 58.9542 7.27975 58.9542 7.27975C58.9883 7.31308 59.01 7.35771 59.0154 7.40582C59.0154 7.49336 59.0324 7.71046 59.0324 7.71046C59.0324 7.71046 59.012 7.75598 58.9814 7.71046C58.935 7.66917 58.881 7.63796 58.8226 7.61871C58.7642 7.59945 58.7026 7.59255 58.6416 7.5984C58.5237 7.5871 58.4053 7.61274 58.3018 7.67194C58.3018 7.67194 58.261 7.75947 58.244 7.72796Z" fill="#F2ECD3"/>
<path d="M58.3154 7.02764C58.3596 6.98162 58.4127 6.94569 58.4712 6.92217C58.5297 6.89864 58.5924 6.88804 58.6552 6.89107C58.7179 6.88804 58.7806 6.89864 58.8392 6.92217C58.8977 6.94569 58.9508 6.98162 58.995 7.02764C58.995 7.02764 58.9576 7.07665 58.927 7.06264C58.8463 6.99802 58.7472 6.96236 58.645 6.96111C58.5495 6.95823 58.456 6.98912 58.3799 7.04865C58.3799 7.04865 58.3426 7.06966 58.3154 7.02764Z" fill="#F2ECD3"/>
<path d="M58.244 6.88757L58.2882 6.4814C58.2882 6.4814 58.2882 6.42888 58.3596 6.35885C58.4309 6.28882 58.5736 6.18377 58.5736 6.18377C58.5736 6.18377 58.6484 6.09273 58.7503 6.18377C58.8523 6.27481 58.9542 6.41487 58.9542 6.41487C58.9884 6.45101 59.0099 6.49782 59.0154 6.54793C59.0154 6.63897 59.0324 6.87007 59.0324 6.87007C59.0324 6.87007 59.012 6.91909 58.9814 6.89108C58.9359 6.84801 58.8822 6.81521 58.8237 6.79471C58.7652 6.77421 58.7032 6.76649 58.6416 6.77203C58.5233 6.76041 58.4044 6.78735 58.3018 6.84906C58.3018 6.84906 58.261 6.91908 58.244 6.88757Z" fill="#F2ECD3"/>
<path d="M58.3731 6.11023C58.4088 6.06547 58.4541 6.02984 58.5053 6.00615C58.5566 5.98245 58.6126 5.97133 58.6687 5.97366C58.7246 5.96986 58.7805 5.98034 58.8315 6.00416C58.8825 6.02798 58.9269 6.06442 58.961 6.11023C58.961 6.11023 58.9338 6.15924 58.9066 6.14523C58.8418 6.0829 58.7573 6.04683 58.6687 6.0437C58.5868 6.04193 58.5075 6.07336 58.4479 6.13124C58.4351 6.1379 58.4204 6.13943 58.4066 6.13555C58.3927 6.13167 58.3808 6.12265 58.3731 6.11023Z" fill="#F2ECD3"/>
<path d="M58.3154 5.97719L58.3494 5.57102C58.3555 5.52416 58.3771 5.48088 58.4105 5.44845C58.4751 5.38192 58.594 5.27337 58.594 5.27337C58.594 5.27337 58.6552 5.18233 58.7401 5.27337C58.8251 5.36441 58.9134 5.50449 58.9134 5.50449C58.9433 5.5421 58.9601 5.58896 58.961 5.63755C58.961 5.72859 58.978 5.95969 58.978 5.95969C58.978 5.95969 58.961 6.00871 58.9338 5.9807C58.8984 5.93859 58.8536 5.90581 58.8034 5.8851C58.7532 5.86439 58.6989 5.85635 58.645 5.86163C58.5429 5.8508 58.4403 5.87815 58.3561 5.93868C58.3561 5.93868 58.329 6.0052 58.3154 5.97719Z" fill="#F2ECD3"/>
<path d="M58.3936 5.22083C58.4348 5.18087 58.4846 5.15147 58.5389 5.13504C58.5932 5.11862 58.6505 5.11562 58.7062 5.12628C58.7613 5.12942 58.8149 5.14636 58.8623 5.17565C58.9097 5.20494 58.9494 5.24568 58.978 5.29435C58.978 5.29435 58.944 5.34338 58.9203 5.32237C58.8615 5.25354 58.7807 5.2088 58.6926 5.19632C58.6529 5.1896 58.6124 5.19108 58.5733 5.2007C58.5342 5.21032 58.4973 5.22787 58.4649 5.25233C58.4582 5.25517 58.4511 5.2566 58.4438 5.25654C58.4366 5.25649 58.4295 5.25495 58.4228 5.25201C58.4162 5.24908 58.4102 5.24482 58.4051 5.23947C58.4001 5.23411 58.3962 5.22777 58.3936 5.22083Z" fill="#F2ECD3"/>
<path d="M58.5396 4.28943C58.5868 4.25765 58.6406 4.23762 58.6966 4.23094C58.7527 4.22425 58.8094 4.2311 58.8624 4.25092C58.9173 4.26422 58.968 4.29134 59.0101 4.32985C59.0522 4.36835 59.0844 4.41704 59.1037 4.47152C59.1037 4.47152 59.0595 4.51004 59.0392 4.47152C58.9943 4.3923 58.9231 4.33255 58.8387 4.30343C58.7635 4.27172 58.6793 4.27172 58.6042 4.30343C58.5934 4.30872 58.5813 4.31022 58.5696 4.30769C58.5579 4.30516 58.5474 4.29874 58.5396 4.28943Z" fill="#F2ECD3"/>
<path d="M58.3494 5.08078L58.4343 4.6816C58.4439 4.63555 58.4708 4.59528 58.5091 4.56955C58.5804 4.51002 58.7096 4.41548 58.7096 4.41548C58.7096 4.41548 58.7809 4.33145 58.8557 4.4505C58.9304 4.56956 58.9984 4.70261 58.9984 4.70261C59.0244 4.74415 59.0364 4.79341 59.0324 4.84268C59.0324 4.93372 59.012 5.16482 59.012 5.16482C59.012 5.16482 58.9882 5.21034 58.9644 5.16482C58.9342 5.11874 58.8938 5.08073 58.8466 5.05394C58.7993 5.02715 58.7465 5.01235 58.6926 5.01075C58.5925 4.98504 58.4866 5.00008 58.3969 5.05276C58.3969 5.05276 58.363 5.1158 58.3494 5.08078Z" fill="#F2ECD3"/>
<path d="M58.5396 4.16339C58.5396 4.16339 59.0697 2.8783 59.5591 2.71373C59.6406 2.71373 59.7256 2.67872 59.7494 2.76626C59.7635 2.8316 59.7876 2.89422 59.8207 2.95183C59.84 3.02235 59.8436 3.09644 59.8313 3.16859C59.8189 3.24074 59.7909 3.30908 59.7494 3.36852C59.5839 3.72022 59.3966 4.06059 59.1887 4.38749C59.1207 4.38749 59.1003 4.35597 59.0391 4.29294C58.978 4.22991 58.8454 4.12487 58.7605 4.14238C58.6755 4.15988 58.5668 4.22641 58.5396 4.16339Z" fill="#F2ECD3"/>
<path d="M59.712 2.61218C59.712 2.61218 59.7935 2.51762 59.8309 2.53163C59.9288 2.59202 60.0042 2.68449 60.045 2.79425C60.0076 2.85727 59.9804 2.8888 59.9566 2.8923C59.9329 2.8958 59.9261 2.79426 59.8785 2.73823C59.8281 2.68941 59.7722 2.64709 59.712 2.61218Z" fill="#F2ECD3"/>
<path d="M59.9771 2.4756C59.9771 2.4756 60.011 2.23399 60.2081 2.18847C60.2837 2.15755 60.3664 2.15002 60.4461 2.16682C60.5258 2.18361 60.5989 2.224 60.6567 2.28301C60.7633 2.44963 60.9095 2.58537 61.0814 2.6773C61.2533 2.76924 61.4451 2.81432 61.6387 2.80825V2.82575C61.389 2.94733 61.1093 2.98764 60.8368 2.94131C60.3203 2.88529 60.011 2.80474 59.9771 2.4756Z" fill="#F2ECD3"/>
<path d="M57.408 16.7025C57.408 16.7025 57.2891 16.7305 57.2653 16.776C57.2428 16.84 57.2313 16.9075 57.2313 16.9756C57.2313 16.9931 57.374 16.9756 57.425 16.9756C57.476 16.9756 57.5575 16.9511 57.5405 16.9126C57.5236 16.8741 57.4828 16.867 57.4624 16.8215C57.442 16.776 57.4284 16.713 57.408 16.7025Z" fill="#F2ECD3"/>
<path d="M59.8989 16.7025C59.8989 16.7025 60.0178 16.7305 60.0416 16.776C60.0641 16.84 60.0756 16.9075 60.0756 16.9756C60.0756 16.9931 59.9328 16.9756 59.8819 16.9756C59.8309 16.9756 59.7493 16.9511 59.7663 16.9126C59.7833 16.8741 59.8241 16.867 59.8411 16.8215C59.8581 16.776 59.8989 16.713 59.8989 16.7025Z" fill="#F2ECD3"/>
<path d="M53.7585 16.7865C53.8091 16.8479 53.8767 16.8918 53.9522 16.9126C53.9862 16.9126 54.0235 16.9126 53.9998 16.8846C53.9684 16.8388 53.9421 16.7894 53.9216 16.7375C53.8944 16.6569 53.9216 16.6324 53.8808 16.643C53.8538 16.6518 53.8301 16.6689 53.8128 16.692C53.8128 16.692 53.7381 16.7655 53.7585 16.7865Z" fill="#F2ECD3"/>
<path d="M63.5349 16.8005C63.4849 16.8633 63.4172 16.9086 63.3412 16.9301C63.3072 16.9301 63.2698 16.9301 63.2902 16.8986C63.3237 16.8555 63.3501 16.807 63.3684 16.755C63.3955 16.6745 63.3684 16.6465 63.4091 16.6605C63.4365 16.6704 63.4611 16.6873 63.4805 16.7095C63.4805 16.7095 63.5519 16.783 63.5349 16.8005Z" fill="#F2ECD3"/>
<path d="M2.66415 24.5565H4.32244C4.53992 24.5565 4.75061 24.5565 4.95789 24.588C5.15056 24.6076 5.33943 24.656 5.51857 24.7316C5.67982 24.8015 5.8196 24.9153 5.92295 25.0607C6.03022 25.2338 6.08249 25.4369 6.07247 25.642C6.07964 25.7772 6.06049 25.9126 6.01614 26.0401C5.97178 26.1676 5.90314 26.2846 5.81423 26.3844C5.72583 26.4771 5.61988 26.5501 5.50297 26.5989C5.38607 26.6476 5.26069 26.6712 5.1346 26.668V26.689C5.44748 26.6697 5.75719 26.7625 6.0113 26.9516C6.11324 27.0349 6.19489 27.1416 6.24976 27.2632C6.30462 27.3848 6.33118 27.5179 6.32733 27.6519C6.326 27.7942 6.30542 27.9356 6.26616 28.0721C6.22013 28.2272 6.13721 28.3681 6.02491 28.4818C5.87903 28.6244 5.70356 28.731 5.51179 28.7934C5.22851 28.8857 4.93196 28.9271 4.63506 28.916H2.65735V28.8389C2.76073 28.8454 2.86418 28.8274 2.95979 28.7864C3.02435 28.7479 3.05833 28.6639 3.05833 28.5273V24.9347C3.05833 24.8051 3.02095 24.7246 2.95639 24.6861C2.86182 24.6456 2.75959 24.6276 2.65735 24.6336L2.66415 24.5565ZM3.71078 26.6575H4.32584C4.47165 26.6579 4.61719 26.645 4.76079 26.6189C4.88296 26.5935 4.99867 26.5423 5.10061 26.4684C5.204 26.389 5.28495 26.2826 5.33508 26.1602C5.39898 26.0006 5.4291 25.8287 5.42343 25.656C5.43559 25.518 5.42114 25.3789 5.3809 25.2467C5.34065 25.1145 5.27542 24.9918 5.18896 24.8857C5.08648 24.7926 4.9669 24.7217 4.83731 24.6772C4.70771 24.6327 4.57076 24.6155 4.43459 24.6266C4.2828 24.6266 4.16046 24.6266 4.06758 24.6266C3.99246 24.6275 3.91794 24.6405 3.8467 24.6651C3.80014 24.679 3.76021 24.7102 3.73455 24.7526C3.71499 24.8051 3.70576 24.861 3.70738 24.9172L3.71078 26.6575ZM3.71078 26.7275V28.5518C3.7083 28.61 3.71635 28.6682 3.73455 28.7234C3.74201 28.7447 3.75374 28.7641 3.76896 28.7804C3.78418 28.7966 3.80256 28.8094 3.82291 28.8179C3.88365 28.8427 3.94795 28.8569 4.0132 28.8599C4.09476 28.8599 4.2001 28.8599 4.33263 28.8599C4.68332 28.8886 5.03222 28.7854 5.31469 28.5693C5.43343 28.4517 5.52547 28.3084 5.58421 28.1498C5.64296 27.9912 5.66696 27.8212 5.6545 27.6519C5.65889 27.4922 5.62628 27.3338 5.55937 27.1897C5.50169 27.0716 5.4135 26.9723 5.30451 26.9026C5.18781 26.8292 5.05865 26.7793 4.9239 26.7555C4.76658 26.7295 4.6075 26.7167 4.44817 26.717L3.71078 26.7275Z" fill="#F2ECD3"/>
<path d="M11.3056 28.9265V28.8494C11.4129 28.8469 11.5166 28.8089 11.6012 28.7409C11.6966 28.6753 11.7701 28.5812 11.8119 28.4713L13.0828 25.3409L12.9197 24.9347C12.9019 24.881 12.8733 24.8317 12.8358 24.7901C12.7984 24.7485 12.7529 24.7155 12.7022 24.6931C12.6003 24.6529 12.4919 24.6327 12.3828 24.6336V24.5565H13.4022L14.9314 28.3207C14.9845 28.4801 15.0771 28.6225 15.1999 28.7339C15.3061 28.8139 15.4354 28.8546 15.5669 28.8494V28.9265H13.9324V28.8494H14.0887C14.2382 28.8494 14.3265 28.7969 14.3469 28.6954C14.3613 28.5757 14.3425 28.4543 14.2926 28.3452L13.9527 27.5118H12.2775L11.8935 28.4643C11.8683 28.5175 11.8578 28.5769 11.8629 28.6359C11.8708 28.6825 11.8907 28.726 11.9207 28.7619C11.9523 28.7989 11.9936 28.8256 12.0396 28.8389C12.0932 28.8575 12.1495 28.867 12.2061 28.8669V28.944L11.3056 28.9265ZM12.325 27.4173H13.9324L13.1304 25.4319L12.325 27.4173Z" fill="#F2ECD3"/>
<path d="M20.4805 28.8495C20.5843 28.8564 20.6881 28.8372 20.783 28.7934C20.8475 28.7549 20.8815 28.6639 20.8815 28.5273V24.9592C20.8815 24.8191 20.8475 24.7281 20.783 24.6896C20.6876 24.6474 20.5842 24.6282 20.4805 24.6336V24.5565H22.132C22.3586 24.5565 22.5726 24.567 22.7743 24.588C22.9665 24.6081 23.1551 24.6553 23.335 24.7281C23.4936 24.7976 23.6318 24.9087 23.7359 25.0502C23.8456 25.2197 23.8993 25.4211 23.8889 25.6245C23.8985 25.823 23.8486 26.0198 23.7461 26.1882C23.6549 26.3297 23.5296 26.4443 23.3825 26.5209C23.2266 26.6003 23.059 26.6524 22.8864 26.675C22.712 26.7014 22.536 26.7142 22.3597 26.7135H22.115C22.1769 26.8187 22.2665 26.9037 22.3733 26.9586C22.4673 27.0023 22.5692 27.0249 22.6723 27.0251C22.7752 27.0255 22.877 27.0041 22.9714 26.9621L23.9908 28.5273C24.0589 28.6362 24.1539 28.7245 24.2661 28.7829C24.3643 28.8284 24.471 28.8511 24.5787 28.8495V28.9265H23.9908C23.8804 28.9294 23.7706 28.9091 23.668 28.867C23.5743 28.829 23.4871 28.7758 23.4097 28.7094C23.3309 28.6427 23.2591 28.5676 23.1956 28.4853C23.1326 28.4056 23.0737 28.3226 23.0189 28.2367L21.9995 26.7135H21.4932V28.5273C21.4932 28.6639 21.5272 28.7549 21.5951 28.7934C21.691 28.8377 21.7961 28.857 21.9009 28.8495V28.9265H20.4805V28.8495ZM22.1388 26.6365C22.285 26.638 22.4309 26.6227 22.5738 26.5909C22.7025 26.5661 22.8244 26.5123 22.9306 26.4334C23.0344 26.3536 23.1164 26.2474 23.1684 26.1252C23.2318 25.9678 23.2619 25.7983 23.2568 25.628C23.2653 25.4932 23.2467 25.358 23.2023 25.2309C23.1579 25.1038 23.0885 24.9875 22.9985 24.8892C22.7905 24.7057 22.5207 24.6139 22.2476 24.6336H21.5204V26.6365H22.1388Z" fill="#F2ECD3"/>
<path d="M29.489 28.8495C29.5928 28.8567 29.6967 28.8374 29.7915 28.7934C29.8594 28.7549 29.89 28.6639 29.89 28.5273V24.9592C29.89 24.8191 29.8594 24.7281 29.7915 24.6896C29.6961 24.6474 29.5927 24.6282 29.489 24.6336V24.5565H31.1405C31.3671 24.5565 31.5811 24.567 31.7828 24.588C31.9751 24.6077 32.1637 24.6549 32.3434 24.7281C32.5026 24.7968 32.641 24.908 32.7444 25.0502C32.8567 25.2186 32.9116 25.4205 32.9007 25.6245C32.9104 25.823 32.8605 26.0198 32.758 26.1882C32.6646 26.329 32.5384 26.4434 32.391 26.5209C32.2351 26.6003 32.0674 26.6524 31.8949 26.675C31.7205 26.7014 31.5444 26.7142 31.3682 26.7135H31.1235C31.1857 26.8197 31.2767 26.9049 31.3852 26.9586C31.4791 27.0026 31.5811 27.0253 31.6842 27.0251C31.786 27.0259 31.8867 27.0044 31.9799 26.9621L32.9993 28.5273C33.0694 28.6357 33.1653 28.7237 33.2779 28.7829C33.375 28.8284 33.4806 28.8511 33.5872 28.8495V28.9265H32.9993C32.8889 28.9294 32.7791 28.9091 32.6765 28.867C32.5828 28.829 32.4956 28.7758 32.4182 28.7094C32.3396 28.6435 32.2689 28.5683 32.2075 28.4853C32.1434 28.4056 32.0833 28.3226 32.0274 28.2367L31.008 26.7135H30.5017V28.5273C30.5017 28.6639 30.5323 28.7549 30.6002 28.7934C30.6973 28.838 30.8035 28.8573 30.9094 28.8495V28.9265H29.4584L29.489 28.8495ZM31.1473 26.6365C31.2946 26.638 31.4416 26.6227 31.5857 26.5909C31.7086 26.5642 31.8245 26.5105 31.9255 26.4334C32.0293 26.3536 32.1113 26.2474 32.1634 26.1252C32.2267 25.9678 32.2568 25.7983 32.2517 25.628C32.261 25.4931 32.2429 25.3577 32.1984 25.2304C32.1539 25.1032 32.0841 24.987 31.9934 24.8892C31.8915 24.7976 31.7729 24.7278 31.6446 24.684C31.5162 24.6401 31.3807 24.6229 31.2459 24.6336H30.5186V26.6365H31.1473Z" fill="#F2ECD3"/>
<path d="M38.4057 28.9265V28.8494C38.5118 28.8462 38.6142 28.8082 38.6979 28.7409C38.7932 28.6744 38.8676 28.5807 38.912 28.4713L40.1795 25.3409L40.0164 24.9347C39.9987 24.8814 39.9706 24.8325 39.9338 24.7909C39.897 24.7493 39.8522 24.716 39.8023 24.6931C39.6939 24.6507 39.5785 24.6305 39.4625 24.6336V24.5565H40.4819L42.0111 28.3207C42.0655 28.4795 42.1578 28.6216 42.2796 28.7339C42.386 28.8134 42.5152 28.854 42.6466 28.8494V28.9265H41.0121V28.8494H41.1684C41.3213 28.8494 41.4062 28.7969 41.4266 28.6954C41.4426 28.5757 41.4237 28.4538 41.3723 28.3452L41.0324 27.5118H39.3572L38.9732 28.4643C38.9473 28.5173 38.9379 28.5771 38.946 28.6359C38.9513 28.6826 38.9702 28.7266 39.0004 28.7619C39.0326 28.7981 39.0737 28.8247 39.1193 28.8389C39.174 28.8579 39.2315 28.8673 39.2892 28.8669V28.944L38.4057 28.9265ZM39.4251 27.4173H41.029L40.2271 25.4319L39.4251 27.4173Z" fill="#F2ECD3"/>
<path d="M71.0447 24.5565H72.1321L73.4336 27.9916L74.6807 24.5565H75.7342V24.6336H75.5541C75.509 24.6347 75.4647 24.6467 75.4249 24.6686C75.3896 24.6905 75.3622 24.7237 75.3468 24.7631C75.3272 24.8168 75.318 24.8739 75.3196 24.9312V28.5133C75.3176 28.5763 75.3268 28.6392 75.3468 28.6989C75.3609 28.739 75.3871 28.7733 75.4215 28.7969C75.4608 28.8206 75.5052 28.8338 75.5507 28.8354H75.7342V28.9125H74.2662V28.8354H74.4497C74.4951 28.8338 74.5395 28.8206 74.5788 28.7969C74.6124 28.7723 74.6383 28.7383 74.6536 28.6989C74.6735 28.6392 74.6827 28.5763 74.6807 28.5133V24.7911L73.1516 28.9265H73.07L71.6088 25.0187C71.6101 25.0118 71.6101 25.0047 71.6088 24.9977C71.6103 24.9908 71.6103 24.9836 71.6088 24.9767V28.5378C71.6049 28.5975 71.6142 28.6574 71.636 28.7129C71.6503 28.753 71.678 28.7866 71.7142 28.8074C71.7529 28.8289 71.7959 28.8409 71.8399 28.8424H72.02V28.9195H71.1127V28.8424H71.2962C71.3416 28.8402 71.3858 28.8271 71.4253 28.8039C71.4589 28.7793 71.4848 28.7453 71.5001 28.7059C71.52 28.6462 71.5293 28.5833 71.5273 28.5203V24.8191C71.4854 24.7481 71.4203 24.6947 71.3438 24.6686C71.2463 24.6417 71.1455 24.6299 71.0447 24.6336V24.5565Z" fill="#F2ECD3"/>
<path d="M80.8382 26.731C80.8361 26.431 80.8916 26.1335 81.0013 25.8556C81.106 25.5956 81.257 25.358 81.4465 25.1553C81.633 24.9501 81.8586 24.7868 82.1091 24.6756C82.3649 24.559 82.6416 24.4993 82.9213 24.5005C83.2009 24.4996 83.4776 24.5593 83.7334 24.6756C83.9897 24.7854 84.2211 24.9488 84.4131 25.1553C84.6046 25.3577 84.7579 25.5952 84.865 25.8556C84.9775 26.1327 85.0342 26.4306 85.0315 26.731C85.0341 27.0336 84.9775 27.3337 84.865 27.6134C84.76 27.8821 84.6067 28.1281 84.4131 28.3382C84.2203 28.5446 83.9891 28.7089 83.7334 28.8214C83.4783 28.9404 83.2013 29.0013 82.9213 29C82.6412 29.0017 82.3641 28.9407 82.1091 28.8214C81.859 28.7077 81.6337 28.5434 81.4465 28.3382C81.2549 28.1278 81.1038 27.8818 81.0013 27.6134C80.8915 27.333 80.8361 27.0333 80.8382 26.731ZM82.8771 24.574C82.671 24.5693 82.4684 24.6292 82.296 24.7456C82.1266 24.8639 81.9859 25.0208 81.8848 25.2043C81.7661 25.4115 81.6812 25.6375 81.6334 25.8731C81.5753 26.1338 81.5468 26.4005 81.5484 26.6679C81.5472 26.9493 81.5757 27.2298 81.6334 27.5048C81.6814 27.7579 81.7686 28.0015 81.8916 28.2261C81.9961 28.4291 82.145 28.6041 82.3266 28.7374C82.5207 28.8666 82.748 28.9325 82.979 28.9264C83.1911 28.9319 83.4001 28.8735 83.5805 28.7584C83.7536 28.6423 83.897 28.485 83.9985 28.2997C84.1164 28.0902 84.1991 27.8617 84.2431 27.6239C84.2977 27.3556 84.3239 27.0821 84.3213 26.808C84.322 26.5338 84.2946 26.2604 84.2397 25.9921C84.191 25.7458 84.1038 25.5093 83.9815 25.2918C83.8706 25.09 83.7159 24.9175 83.5295 24.7876C83.334 24.6478 83.1015 24.5732 82.8635 24.574H82.8771Z" fill="#F2ECD3"/>
<path d="M90.1423 28.8494C90.246 28.8567 90.3499 28.8374 90.4447 28.7934C90.5093 28.7549 90.5433 28.6639 90.5433 28.5273V24.9592C90.5433 24.8191 90.5093 24.7281 90.4447 24.6896C90.3494 24.6474 90.2459 24.6282 90.1423 24.6336V24.5565H91.7938C92.0203 24.5565 92.2344 24.567 92.436 24.588C92.6282 24.6081 92.8169 24.6553 92.9967 24.7281C93.1553 24.7976 93.2936 24.9087 93.3977 25.0502C93.5074 25.2197 93.561 25.4211 93.5506 25.6245C93.5602 25.823 93.5104 26.0198 93.4079 26.1882C93.3167 26.3297 93.1914 26.4443 93.0443 26.5209C92.8884 26.6003 92.7207 26.6524 92.5481 26.675C92.3738 26.7014 92.1977 26.7142 92.0214 26.7135H91.7768C91.8387 26.8187 91.9282 26.9037 92.035 26.9586C92.1301 27.0026 92.2332 27.0253 92.3375 27.0251C92.4392 27.0251 92.5398 27.0037 92.6331 26.9621L93.6695 28.5273C93.7388 28.6365 93.835 28.7247 93.9482 28.7829C94.0451 28.8287 94.1508 28.8515 94.2574 28.8494V28.9265H93.6695C93.5534 28.9318 93.4376 28.9115 93.3297 28.8669C93.236 28.829 93.1488 28.7758 93.0715 28.7094C92.9926 28.6427 92.9208 28.5676 92.8574 28.4853C92.7944 28.4056 92.7354 28.3226 92.6807 28.2367L91.6612 26.7135H91.1549V28.5273C91.1549 28.6639 91.1889 28.7549 91.2569 28.7934C91.3528 28.8377 91.4578 28.857 91.5627 28.8494V28.9265H90.1423V28.8494ZM91.8006 26.6365C91.9467 26.638 92.0926 26.6227 92.2355 26.5909C92.3583 26.5637 92.4741 26.51 92.5753 26.4334C92.6792 26.3536 92.7612 26.2474 92.8132 26.1252C92.8765 25.9678 92.9067 25.7983 92.9016 25.628C92.91 25.4932 92.8915 25.358 92.8471 25.2309C92.8026 25.1038 92.7333 24.9875 92.6433 24.8892C92.4352 24.7057 92.1655 24.6139 91.8923 24.6336H91.1651V26.6365H91.8006Z" fill="#F2ECD3"/>
<path d="M99.1439 28.9265V28.8494C99.2488 28.857 99.3538 28.8377 99.4498 28.7934C99.5143 28.7549 99.5449 28.6639 99.5449 28.5273V24.9592C99.5449 24.8191 99.5143 24.7281 99.4498 24.6896C99.3534 24.6468 99.2487 24.6277 99.1439 24.6336V24.5565H101.971L102.28 25.509H102.206C102.145 25.3368 102.059 25.1751 101.951 25.0292C101.871 24.9222 101.77 24.8339 101.655 24.7701C101.55 24.7118 101.434 24.6749 101.315 24.6616C101.183 24.6616 101.043 24.6371 100.891 24.6336H100.211V26.5944H100.891C101.006 26.5969 101.121 26.5791 101.23 26.5419C101.312 26.5134 101.383 26.4581 101.431 26.3843C101.482 26.2994 101.513 26.2035 101.523 26.1042C101.541 25.9626 101.548 25.8198 101.546 25.677H101.621V27.6624H101.546C101.549 27.5045 101.541 27.3466 101.523 27.1897C101.513 27.0827 101.481 26.979 101.431 26.8851C101.384 26.8085 101.313 26.7506 101.23 26.7205C101.12 26.6861 101.006 26.6695 100.891 26.6715H100.211V28.5378C100.211 28.6744 100.245 28.7619 100.309 28.7969C100.405 28.842 100.51 28.8625 100.615 28.8565V28.9265H99.1439Z" fill="#F2ECD3"/>
<path d="M107.66 28.5273V24.9592C107.66 24.8191 107.626 24.7281 107.561 24.6896C107.465 24.6468 107.36 24.6277 107.255 24.6336V24.5565H108.706V24.6336C108.6 24.6279 108.495 24.647 108.397 24.6896C108.332 24.7281 108.299 24.8191 108.299 24.9592V28.5273C108.299 28.6639 108.332 28.7549 108.397 28.7934C108.492 28.8374 108.596 28.8567 108.699 28.8494V28.9265H107.248V28.8494C107.353 28.857 107.458 28.8377 107.554 28.7934C107.626 28.7549 107.66 28.6639 107.66 28.5273Z" fill="#F2ECD3"/>
</g>
<defs>
<clipPath id="clip0_467_1090">
<rect width="111" height="29" fill="white"/>
</clipPath>
</defs>
</svg>
